<svg width="34" height="50" viewBox="0 0 34 50" fill="none" xmlns="http://www.w3.org/2000/svg">
<path d="M16.6667 0C7.47684 0 0 7.47684 0 16.6667C0 19.4254 0.689745 22.1608 2.00097 24.587L15.7552 49.4628C15.9383 49.7944 16.2873 49.9999 16.6667 49.9999C17.0461 49.9999 17.395 49.7944 17.5781 49.4628L31.3374 24.5788C32.6436 22.1608 33.3333 19.4253 33.3333 16.6666C33.3333 7.47684 25.8565 0 16.6667 0ZM16.6667 24.9999C12.0718 24.9999 8.33338 21.2616 8.33338 16.6667C8.33338 12.0718 12.0718 8.33338 16.6667 8.33338C21.2616 8.33338 25 12.0718 25 16.6667C25 21.2616 21.2616 24.9999 16.6667 24.9999Z" fill="black"/>
</svg>