<svg width="53" height="35" viewBox="0 0 53 35" fill="none" xmlns="http://www.w3.org/2000/svg">
<path d="M34.8906 17.4422L52.634 28.0984V6.33594L34.8906 17.4422Z" fill="black"/>
<path d="M0 6.33594V28.0984L17.7434 17.4422L0 6.33594Z" fill="black"/>
<path d="M49.345 0H3.29235C1.6509 0 0.348273 1.1625 0.101562 2.65938L26.3187 19.0688L52.5358 2.65938C52.289 1.1625 50.9864 0 49.345 0Z" fill="black"/>
<path d="M31.8752 19.3312L27.2206 22.2438C26.9443 22.4156 26.6318 22.5 26.316 22.5C26.0002 22.5 25.6877 22.4156 25.4114 22.2438L20.7568 19.3281L0.105469 31.7375C0.358758 33.2219 1.65481 34.375 3.28968 34.375H49.3423C50.9771 34.375 52.2732 33.2219 52.5265 31.7375L31.8752 19.3312Z" fill="black"/>
</svg>