<svg width="50" height="50" viewBox="0 0 50 50" fill="none" xmlns="http://www.w3.org/2000/svg">
<path d="M45.9879 32.8192C42.9267 32.8192 39.921 32.3404 37.0727 31.3991C35.677 30.9231 33.9612 31.3598 33.1094 32.2347L27.4874 36.4787C20.9675 32.9984 16.9514 28.9835 13.5186 22.5126L17.6377 17.0371C18.7079 15.9683 19.0917 14.4071 18.6319 12.9423C17.6865 10.079 17.2063 7.07472 17.2063 4.01223C17.2065 1.79986 15.4066 0 13.1944 0H4.0121C1.79987 0 0 1.79987 0 4.0121C0 29.3701 20.6299 49.9999 45.9879 49.9999C48.2001 49.9999 50 48.2 50 45.9878V36.8312C49.9999 34.6191 48.2 32.8192 45.9879 32.8192Z" fill="black"/>
</svg>